<svg width="109" height="110" viewBox="0 0 109 110" fill="none" xmlns="http://www.w3.org/2000/svg">
<path d="M26.7248 82.6696L48.2377 61.1568M76.8709 32.5235L70.205 39.1894" stroke="black" stroke-width="7" stroke-linecap="round"/>
<path d="M77.7799 45.8554L55.2066 68.4287C41.2873 50.7829 32.4239 48.8416 14.6049 60.3993C5.06049 29.1905 37.6327 -2.77571 69.7505 5.25372C57.2886 25.3627 60.2911 33.9132 77.7799 45.8554Z" stroke="black" stroke-width="7" stroke-linejoin="round"/>
<path d="M40.0567 54.4908L62.63 31.9175C76.5493 49.5634 85.4127 51.5047 103.232 39.9469C112.776 71.1557 80.2039 103.122 48.0862 95.0925C60.548 74.9836 57.5455 66.433 40.0567 54.4908Z" stroke="black" stroke-width="7" stroke-linejoin="round"/>
<path d="M22.4829 78.5791L30.6638 86.76" stroke="black" stroke-width="7" stroke-linecap="round" stroke-linejoin="round"/>
<path d="M4 105.546L8.84796 100.698" stroke="black" stroke-width="7" stroke-linecap="round"/>
<path d="M4.606 96.456L12.7869 104.637" stroke="black" stroke-width="7" stroke-linecap="round" stroke-linejoin="round"/>
<path d="M17.6349 85.6996V97.971M11.5749 92.214H23.8463" stroke="black" stroke-width="7" stroke-linecap="round" stroke-linejoin="round"/>
</svg>
